<mxfile host="app.diagrams.net" modified="2020-09-11T09:11:21.859Z" agent="5.0 (Windows)" etag="v7cxqywOnKU-1OP2n9Wl" version="13.6.9" type="github">
  <diagram id="Wl9vZgtoPUWpxZ4xcX9L" name="Page-1">
    <mxGraphModel dx="910" dy="487" grid="1" gridSize="10" guides="1" tooltips="1" connect="1" arrows="1" fold="1" page="1" pageScale="1" pageWidth="1169" pageHeight="827" math="0" shadow="0">
      <root>
        <mxCell id="0" />
        <mxCell id="1" parent="0" />
        <mxCell id="5EhDUY8TPxBdRdRshf9v-1" value="Pensions - Accounts" style="swimlane;fontSize=10;" vertex="1" parent="1">
          <mxGeometry x="40" y="30" width="1080" height="750" as="geometry" />
        </mxCell>
        <mxCell id="5EhDUY8TPxBdRdRshf9v-2" value="Start" style="rounded=1;whiteSpace=wrap;html=1;fontSize=10;" vertex="1" parent="5EhDUY8TPxBdRdRshf9v-1">
          <mxGeometry x="210" y="60" width="120" height="60" as="geometry" />
        </mxCell>
        <mxCell id="5EhDUY8TPxBdRdRshf9v-3" value="Team lead in Accounts receives claims payment schedule and distributes to accountants" style="rounded=0;whiteSpace=wrap;html=1;fontSize=10;" vertex="1" parent="5EhDUY8TPxBdRdRshf9v-1">
          <mxGeometry x="210" y="200" width="120" height="60" as="geometry" />
        </mxCell>
        <mxCell id="5EhDUY8TPxBdRdRshf9v-5" value="" style="edgeStyle=orthogonalEdgeStyle;rounded=0;orthogonalLoop=1;jettySize=auto;html=1;fontSize=10;entryX=0.5;entryY=0;entryDx=0;entryDy=0;" edge="1" parent="5EhDUY8TPxBdRdRshf9v-1" source="5EhDUY8TPxBdRdRshf9v-2" target="5EhDUY8TPxBdRdRshf9v-3">
          <mxGeometry relative="1" as="geometry">
            <mxPoint x="270" y="200" as="targetPoint" />
          </mxGeometry>
        </mxCell>
        <mxCell id="5EhDUY8TPxBdRdRshf9v-9" value="" style="edgeStyle=orthogonalEdgeStyle;rounded=0;orthogonalLoop=1;jettySize=auto;html=1;fontSize=10;" edge="1" parent="1" source="5EhDUY8TPxBdRdRshf9v-6" target="5EhDUY8TPxBdRdRshf9v-8">
          <mxGeometry relative="1" as="geometry" />
        </mxCell>
        <mxCell id="5EhDUY8TPxBdRdRshf9v-6" value="The accountant generates payment voucher and pensioner letter, verifies, examines for correctness,signs as per directorate approval and forwards to the voucher approval" style="whiteSpace=wrap;html=1;rounded=0;fontSize=10;" vertex="1" parent="1">
          <mxGeometry x="210" y="370" width="200" height="80" as="geometry" />
        </mxCell>
        <mxCell id="5EhDUY8TPxBdRdRshf9v-7" value="" style="edgeStyle=orthogonalEdgeStyle;rounded=0;orthogonalLoop=1;jettySize=auto;html=1;fontSize=10;" edge="1" parent="1" source="5EhDUY8TPxBdRdRshf9v-3" target="5EhDUY8TPxBdRdRshf9v-6">
          <mxGeometry relative="1" as="geometry" />
        </mxCell>
        <mxCell id="5EhDUY8TPxBdRdRshf9v-11" value="" style="edgeStyle=orthogonalEdgeStyle;rounded=0;orthogonalLoop=1;jettySize=auto;html=1;fontSize=10;" edge="1" parent="1" source="5EhDUY8TPxBdRdRshf9v-8" target="5EhDUY8TPxBdRdRshf9v-10">
          <mxGeometry relative="1" as="geometry" />
        </mxCell>
        <mxCell id="5EhDUY8TPxBdRdRshf9v-8" value="The voucher approver verifies, validate, approve and stamps the payment voucher" style="whiteSpace=wrap;html=1;rounded=0;fontSize=10;" vertex="1" parent="1">
          <mxGeometry x="210" y="540" width="200" height="60" as="geometry" />
        </mxCell>
        <mxCell id="5EhDUY8TPxBdRdRshf9v-10" value="The accountant appends a signature on both the payment voucher and the pensioner letter" style="whiteSpace=wrap;html=1;rounded=0;fontSize=10;" vertex="1" parent="1">
          <mxGeometry x="530" y="540" width="120" height="60" as="geometry" />
        </mxCell>
        <mxCell id="5EhDUY8TPxBdRdRshf9v-14" value="" style="edgeStyle=orthogonalEdgeStyle;rounded=0;orthogonalLoop=1;jettySize=auto;html=1;fontSize=10;" edge="1" parent="1" source="5EhDUY8TPxBdRdRshf9v-12" target="5EhDUY8TPxBdRdRshf9v-8">
          <mxGeometry relative="1" as="geometry" />
        </mxCell>
        <mxCell id="5EhDUY8TPxBdRdRshf9v-12" value="Pensioner letter is auto generated " style="shape=process;whiteSpace=wrap;html=1;backgroundOutline=1;rounded=0;fontSize=10;" vertex="1" parent="1">
          <mxGeometry x="250" y="676" width="120" height="60" as="geometry" />
        </mxCell>
      </root>
    </mxGraphModel>
  </diagram>
</mxfile>
